<?xml version="1.0" encoding="UTF-8"?>
<svg version="1.1" xmlns="http://www.w3.org/2000/svg" width="2100" height="1500">
<path d="M0 0 C39.3834375 -0.12375 39.3834375 -0.12375 79.5625 -0.25 C91.96565796 -0.30462402 91.96565796 -0.30462402 104.61938477 -0.36035156 C114.7713623 -0.37841797 114.7713623 -0.37841797 119.53453064 -0.3817749 C122.83814902 -0.38547881 126.14150634 -0.40037693 129.4450531 -0.42230225 C133.67607058 -0.45000542 137.9067156 -0.45791613 142.13781536 -0.4522891 C143.67989982 -0.45346346 145.22199907 -0.46123648 146.76400483 -0.47686052 C171.17089103 -0.712408 191.18312359 8.94649887 210 24 C210.74378906 24.52078125 211.48757813 25.0415625 212.25390625 25.578125 C212.83011719 26.04734375 213.40632812 26.5165625 214 27 C214 27.66 214 28.32 214 29 C214.66 29 215.32 29 216 29 C216 29.66 216 30.32 216 31 C216.99 31.33 217.98 31.66 219 32 C220.85105742 34.06622811 222.56113562 36.12012146 224.25 38.3125 C224.73509033 38.93753418 225.22018066 39.56256836 225.7199707 40.20654297 C237 55.00327627 237 55.00327627 237 62 C237.66 62 238.32 62 239 62 C239.80008365 63.97577908 240.58959921 65.95583847 241.375 67.9375 C242.03628906 69.59072266 242.03628906 69.59072266 242.7109375 71.27734375 C245.31073504 78.78524391 246.31510945 85.83080818 246.3359375 93.7578125 C246.3459227 95.11699295 246.3459227 95.11699295 246.35610962 96.50363159 C246.36617401 98.4112548 246.37092858 100.31891277 246.37060547 102.2265625 C246.3749575 105.09696758 246.41128532 107.9658056 246.44921875 110.8359375 C246.53515939 124.77068535 244.65990846 136.18774925 239 149 C238.34 149 237.68 149 237 149 C236.88398438 149.721875 236.76796875 150.44375 236.6484375 151.1875 C234.4425507 160.75520178 227.62202952 168.18367935 221.29296875 175.34765625 C219.01759791 177.75927356 219.01759791 177.75927356 218 180 C217.34 180 216.68 180 216 180 C216 180.66 216 181.32 216 182 C195.87813334 201.42376108 169.57957502 212.26900637 141.72265625 212.09375 C140.63146988 212.09016479 139.54028351 212.08657959 138.41603088 212.08288574 C126.08739978 212.02353765 113.7629836 211.77005624 101.4375 211.5 C93.703125 211.335 85.96875 211.17 78 211 C78 243.01 78 275.02 78 308 C52.26 308 26.52 308 0 308 C0 206.36 0 104.72 0 0 Z " fill="#E9F8E6" transform="translate(129,596)"/>
<path d="M0 0 C16.03889308 -0.07035905 32.07773542 -0.123119 48.11674595 -0.15543652 C55.56543222 -0.17084689 63.01402211 -0.19182355 70.46264648 -0.22631836 C76.96161611 -0.25640071 83.46051586 -0.27561726 89.95955318 -0.28226548 C93.39464316 -0.28614618 96.82953341 -0.29514145 100.26455879 -0.31719017 C123.81201938 -0.45156514 145.90519736 0.49348242 165 16 C165.83015625 16.64453125 166.6603125 17.2890625 167.515625 17.953125 C182.25313736 30.15904014 189.93304709 48.26660399 192 67 C194.49436054 97.90573552 187.68930935 132.69446265 167.625 156.97265625 C159.66542876 166.26575267 151.18424078 173.35362833 141 180 C146.58423344 192.47995834 152.24215485 204.92286194 158.00204468 217.32272339 C159.22247632 219.95030375 160.44107383 222.57872924 161.65942383 225.20727539 C165.53528626 233.56508759 169.42417581 241.91649862 173.34375 250.25390625 C174.0036809 251.65965915 174.6635936 253.06542059 175.32348633 254.47119141 C176.54025535 257.062824 177.76214399 259.65195612 178.98706055 262.23974609 C179.52113525 263.37621582 180.05520996 264.51268555 180.60546875 265.68359375 C181.07106201 266.66900146 181.53665527 267.65440918 182.01635742 268.66967773 C183 271 183 271 183 273 C158.91 273 134.82 273 110 273 C105.02872484 263.05744968 100.11460232 253.13893495 95.4375 243.0625 C94.84881178 241.79800678 94.2601069 240.53352131 93.67138672 239.26904297 C86.67878062 224.2261728 79.83839249 209.11342205 73 194 C63.43 193.67 53.86 193.34 44 193 C43.74347656 195.701875 43.48695313 198.40375 43.22265625 201.1875 C42.00720176 213.55657526 40.46510439 225.88422485 38.91333008 238.21484375 C38.43133728 242.04902354 37.95471521 245.88384683 37.47851562 249.71875 C37.17219133 252.16670627 36.8655623 254.61462443 36.55859375 257.0625 C36.41691269 258.20404541 36.27523163 259.34559082 36.1292572 260.52172852 C35.99564285 261.57803467 35.8620285 262.63434082 35.72436523 263.72265625 C35.60826401 264.64828369 35.49216278 265.57391113 35.37254333 266.52758789 C35 269 35 269 34 273 C11.89 273 -10.22 273 -33 273 C-32.39523342 264.53326786 -31.76117313 256.19821038 -30.70959473 247.79664612 C-30.58285574 246.76056794 -30.45611676 245.72448975 -30.3255372 244.65701526 C-29.90593663 241.23389245 -29.48130682 237.81141378 -29.05664062 234.38891602 C-28.7523972 231.91551889 -28.44846586 229.44208337 -28.14482117 226.96861267 C-27.40868373 220.97871977 -26.669288 214.98923741 -25.92838132 208.99993325 C-25.06461078 202.01608133 -24.20479612 195.03174404 -23.3451696 188.04738104 C-21.81124179 175.58535406 -20.27404762 163.12373226 -18.73486328 150.66235352 C-17.24293249 138.58350063 -15.75288657 126.50441742 -14.26513672 114.42504883 C-14.17336798 113.67996189 -14.08159925 112.93487496 -13.98704964 112.16720963 C-13.61812702 109.17182039 -13.24921008 106.17643045 -12.88030246 103.18103937 C-11.2881783 90.25396628 -9.69454114 77.32707965 -8.10067153 64.40022168 C-7.84317794 62.31176644 -7.58571751 60.22330713 -7.32826424 58.13484693 C-6.35080968 50.20605917 -5.37259182 42.27736624 -4.39325905 34.3488102 C-4.09673719 31.94744412 -3.80044047 29.54605023 -3.50438499 27.14462662 C-3.10035929 23.86782851 -2.69549532 20.59113506 -2.29040527 17.31446838 C-2.11486862 15.88859928 -2.11486862 15.88859928 -1.93578577 14.43392473 C-1.33899072 9.61458439 -0.70563343 4.80464763 0 0 Z M60 63 C58.73169789 65.53660422 58.58002043 67.72532508 58.24389648 70.54785156 C58.10382675 71.70955872 57.96375702 72.87126587 57.81944275 74.06817627 C57.67148758 75.32958435 57.52353241 76.59099243 57.37109375 77.890625 C57.21713638 79.18313171 57.06317902 80.47563843 56.90455627 81.80731201 C56.57854984 84.54752921 56.25524517 87.28804826 55.93383789 90.02880859 C55.52296226 93.53077843 55.10562338 97.03194089 54.68624783 100.53290176 C54.28607006 103.88090246 53.89131328 107.22953534 53.49609375 110.578125 C53.34611435 111.83143616 53.19613495 113.08474731 53.04161072 114.3760376 C52.90469315 115.55035339 52.76777557 116.72466919 52.62670898 117.93457031 C52.50537094 118.9633429 52.3840329 119.99211548 52.25901794 121.05206299 C51.99554712 124.05067911 51.95503773 126.99146911 52 130 C57.60096412 130.07495628 63.20162711 130.1289776 68.80297852 130.16479492 C70.70276993 130.17974885 72.60252764 130.20011943 74.50219727 130.22631836 C95.60183395 130.96675873 95.60183395 130.96675873 114 122 C121.46788511 113.54321686 123.45686409 102.97792892 124 92 C124.05285156 91.00613281 124.10570312 90.01226563 124.16015625 88.98828125 C124.36419256 81.91797951 124.12360187 76.00953573 119.6640625 70.28515625 C112.23828866 62.87749405 101.51966643 62.74738054 91.640625 62.70703125 C87.84323408 62.71572502 84.04702502 62.76168123 80.25 62.8125 C78.28126026 62.82757681 76.31250933 62.8412599 74.34375 62.85351562 C69.56221942 62.88627745 64.78123577 62.93789362 60 63 Z " fill="#013237" transform="translate(409,602)"/>
<path d="M0 0 C16.4473158 -0.07032311 32.89458224 -0.12310164 49.34201241 -0.15543652 C56.98017552 -0.17085441 64.6182448 -0.19184578 72.25634766 -0.22631836 C78.91974674 -0.25637733 85.5830778 -0.27561183 92.24654281 -0.28226548 C95.76934799 -0.28615006 99.29195871 -0.29517095 102.81470108 -0.31719017 C106.7633838 -0.34166773 110.71188254 -0.34195952 114.66064453 -0.34057617 C115.8072052 -0.351362 116.95376587 -0.36214783 118.1350708 -0.3732605 C142.21049348 -0.28269152 161.4003598 9.42680842 178.15625 26.15234375 C193.36366985 42.32484986 198.69788814 62.90197627 198.11439514 84.60373688 C197.72555126 92.74894513 196.54776874 100.84687024 195.515625 108.9296875 C195.2555549 111.01596617 194.99610695 113.10232247 194.73724365 115.18875122 C194.19540211 119.53795053 193.64666831 123.8862065 193.09277344 128.23388672 C192.38993455 133.75442212 191.70357436 139.27685436 191.02234268 144.8000927 C190.48990641 149.10279829 189.94902495 153.40441125 189.40569305 157.70575333 C189.14973683 159.73922283 188.89618192 161.77299633 188.6452713 163.80709457 C184.86050214 194.37014309 178.1606155 220.57359001 156 243 C155.35675781 243.71542969 154.71351563 244.43085937 154.05078125 245.16796875 C139.21034381 261.29607972 115.60125991 271.18036993 94 273 C89.81072956 273.13603566 85.6247487 273.12652901 81.43359375 273.11352539 C79.57378624 273.11374443 79.57378624 273.11374443 77.67640686 273.1139679 C74.29886478 273.11339322 70.92138485 273.10839987 67.54385376 273.10139394 C64.00580023 273.09511572 60.46774574 273.09455308 56.9296875 273.09336853 C50.2398698 273.09026834 43.55006857 273.08207273 36.8602581 273.07201904 C29.23990547 273.06081704 21.61955202 273.05533718 13.99919319 273.05032361 C-1.66721405 273.03988894 -17.3336049 273.02231504 -33 273 C-32.32099298 260.05711117 -30.65165821 247.24358691 -29.05664062 234.38891602 C-28.7523972 231.91551889 -28.44846586 229.44208337 -28.14482117 226.96861267 C-27.40868373 220.97871977 -26.669288 214.98923741 -25.92838132 208.99993325 C-25.06461078 202.01608133 -24.20479612 195.03174404 -23.3451696 188.04738104 C-21.81124179 175.58535406 -20.27404762 163.12373226 -18.73486328 150.66235352 C-17.24293249 138.58350063 -15.75288657 126.50441742 -14.26513672 114.42504883 C-14.17336798 113.67996189 -14.08159925 112.93487496 -13.98704964 112.16720963 C-13.61812702 109.17182039 -13.24921008 106.17643045 -12.88030246 103.18103937 C-11.2881783 90.25396628 -9.69454114 77.32707965 -8.10067153 64.40022168 C-7.84317794 62.31176644 -7.58571751 60.22330713 -7.32826424 58.13484693 C-6.35080968 50.20605917 -5.37259182 42.27736624 -4.39325905 34.3488102 C-4.09673719 31.94744412 -3.80044047 29.54605023 -3.50438499 27.14462662 C-3.10035929 23.86782851 -2.69549532 20.59113506 -2.29040527 17.31446838 C-2.11486862 15.88859928 -2.11486862 15.88859928 -1.93578577 14.43392473 C-1.33899072 9.61458439 -0.70563343 4.80464763 0 0 Z M60 63 C58.73532384 65.52935232 58.57635971 67.7073859 58.23435974 70.52180481 C58.08994446 71.69530991 57.94552917 72.868815 57.79673767 74.07788086 C57.56368675 76.01896729 57.56368675 76.01896729 57.32592773 77.99926758 C57.15860673 79.3707809 56.990966 80.74225526 56.82302856 82.11369324 C56.36715059 85.84478043 55.91598885 89.57642423 55.46581149 93.30820298 C54.99434028 97.21125855 54.51911994 101.11385781 54.04444885 105.01652527 C53.24746083 111.57425796 52.45352313 118.13235462 51.66137695 124.69067383 C50.74575002 132.27099983 49.82534664 139.85073418 48.90235752 147.43016702 C48.01485386 154.71911314 47.13073451 162.00846593 46.24815559 169.29800987 C45.87246397 172.40049228 45.49559038 175.50282773 45.11776543 178.60505104 C44.67261848 182.26132245 44.23043853 185.91794088 43.79053116 189.57484627 C43.55158303 191.55531575 43.30970194 193.53543068 43.06773376 195.51553345 C42.92613831 196.69749802 42.78454285 197.87946259 42.63865662 199.09724426 C42.51459159 200.1224458 42.39052656 201.14764734 42.26270199 202.2039156 C42.01658759 204.82344903 41.95075819 207.37102831 42 210 C48.0465376 210.04986361 54.09295247 210.08593682 60.13964844 210.10986328 C62.19175301 210.11984998 64.24384363 210.13344401 66.29589844 210.15087891 C89.59990187 211.16571111 89.59990187 211.16571111 109.8125 201.28125 C117.47400353 191.9342157 118.91421817 179.96646315 120.375 168.375 C120.5776785 166.82998737 120.78106938 165.28506805 120.98510742 163.74023438 C121.42855166 160.3574993 121.86211304 156.97366089 122.28955078 153.58886719 C122.91851094 148.61465662 123.57206712 143.6439037 124.22845459 138.67324829 C124.7961911 134.34990821 125.3509323 130.02496589 125.90240479 125.69952393 C126.1717124 123.59841147 126.44466856 121.4977628 126.72161865 119.39764404 C128.09155645 108.95723851 129.25254129 98.56882535 129.41796875 88.03125 C129.44135818 87.23481079 129.46474762 86.43837158 129.48884583 85.61779785 C129.47783488 78.87963904 127.48028228 73.54917901 122.75 68.6875 C114.09029546 63.3735904 105.29484099 62.84971996 95.3515625 62.90234375 C93.83276993 62.90446617 93.83276993 62.90446617 92.28329468 62.90663147 C89.06383249 62.91220857 85.84444101 62.92475688 82.625 62.9375 C80.43619892 62.94251796 78.24739675 62.94708035 76.05859375 62.95117188 C70.70570523 62.9621705 65.35285767 62.9788858 60 63 Z " fill="#013237" transform="translate(898,602)"/>
<path d="M0 0 C2.03114508 0.01075844 4.06140993 0.00000071 6.0925293 -0.01269531 C31.00217268 -0.04181182 52.19212098 6.45865143 70.96557617 23.26074219 C71.89950195 24.05351563 71.89950195 24.05351563 72.85229492 24.86230469 C88.22229138 38.83502874 96.47866783 60.90037576 97.83851624 81.17860413 C98.32787663 91.74459402 96.69456929 102.2350103 95.40307617 112.69824219 C95.12548614 115.02461334 94.84897433 117.35111337 94.57348633 119.67773438 C94.00276757 124.47643341 93.42320226 129.27395011 92.8371582 134.07080078 C92.12306686 139.92999401 91.43460277 145.79177998 90.75801086 151.65541077 C90.24890788 156.05990333 89.73077283 160.46330229 89.21047974 164.8664856 C88.96756277 166.93132987 88.72730446 168.996489 88.48995972 171.0619812 C84.36016106 206.82282605 72.80310064 237.82164474 43.64526367 260.96386719 C14.71574719 282.9122586 -20.09438698 287.48321835 -55.44067383 283.79199219 C-77.5673476 280.74306993 -98.3251291 269.08341573 -112 251.38232422 C-122.82365594 236.66412719 -128.64251433 219.65060088 -128.55004883 201.33496094 C-128.54587952 200.16503098 -128.54171021 198.99510101 -128.53741455 197.78971863 C-128.19276995 179.1468487 -125.50070068 160.61970054 -123.168396 142.14489746 C-122.65424335 138.03183976 -122.15981196 133.91651052 -121.66561508 129.8010149 C-121.18064763 125.7770431 -120.68583936 121.75432904 -120.18793488 117.73193932 C-119.95439215 115.83997221 -119.72315842 113.94771832 -119.49449921 112.0551548 C-118.38647208 102.94209117 -117.13349518 93.93083339 -115.05493164 84.98217773 C-114.90123486 84.31844808 -114.74753807 83.65471842 -114.58918381 82.97087574 C-109.86971212 63.79493602 -98.61455385 48.1828903 -85.03442383 34.26074219 C-84.31899414 33.47183594 -83.60356445 32.68292969 -82.86645508 31.87011719 C-61.66285474 9.1150339 -30.22778368 -0.18953874 0 0 Z M-42.72583008 79.43652344 C-51.36883072 91.48512434 -51.79359034 107.87006513 -53.51489258 122.17871094 C-53.7344444 123.97085444 -53.95436646 125.76295261 -54.17463684 127.55500793 C-54.63163881 131.285123 -55.08407858 135.01575469 -55.53320312 138.74682617 C-56.10596508 143.50175992 -56.69043399 148.25516885 -57.27834606 153.00825024 C-57.73354235 156.69935302 -58.18240212 160.39120583 -58.62941933 164.08330727 C-58.84235195 165.83563323 -59.05722109 167.58772511 -59.27416039 169.33955956 C-62.53302452 189.76738134 -62.53302452 189.76738134 -56.33520508 208.74511719 C-51.24813501 214.86159436 -45.83321057 218.6105247 -38.03442383 220.26074219 C-33.8506752 220.53848395 -29.6638974 220.53821177 -25.47192383 220.57324219 C-24.34206055 220.60224609 -23.21219727 220.63125 -22.0480957 220.66113281 C-9.94864507 220.75168714 -0.44133383 217.33689437 8.52807617 209.13574219 C14.56800814 202.78914701 17.04939629 196.03006568 18.46484375 187.46484375 C18.59153096 186.72123722 18.71821817 185.97763069 18.84874439 185.21149063 C20.17248806 177.29009462 21.22846402 169.33796597 22.22729492 161.37011719 C22.32383677 160.60654152 22.42037861 159.84296585 22.51984596 159.05625153 C23.03026499 155.01902989 23.53589546 150.98124555 24.03710938 146.94287109 C24.44515429 143.66088019 24.86136745 140.3800923 25.28515625 137.10009766 C31.45393242 105.75658869 31.45393242 105.75658869 25.57495117 76.20214844 C19.57229197 68.96107654 13.48473257 64.91574899 3.97924805 63.96069336 C0.67752828 63.82261685 -2.60501588 63.8022315 -5.90942383 63.82324219 C-7.01672852 63.80326172 -8.1240332 63.78328125 -9.26489258 63.76269531 C-23.0204247 63.77077729 -34.08671384 68.6434812 -42.72583008 79.43652344 Z " fill="#013237" transform="translate(751.034423828125,595.7392578125)"/>
<path d="M0 0 C61.38 0 122.76 0 186 0 C185.40183085 8.97253724 184.78562397 17.7551206 183.625 26.640625 C183.49561035 27.65549988 183.3662207 28.67037476 183.23291016 29.71600342 C182.96278078 31.8267354 182.69047794 33.93719035 182.41601562 36.04736328 C181.99548449 39.28476199 181.58321583 42.52314077 181.171875 45.76171875 C180.90673068 47.82558264 180.64112306 49.88938708 180.375 51.953125 C180.25205566 52.91865295 180.12911133 53.88418091 180.00244141 54.87896729 C179.88562012 55.77130066 179.76879883 56.66363403 179.6484375 57.58300781 C179.49640869 58.75757538 179.49640869 58.75757538 179.34130859 59.95587158 C179 62 179 62 178 65 C138.73 65 99.46 65 59 65 C58.67 70.61 58.34 76.22 58 82 C57.01 89.26 56.02 96.52 55 104 C90.97 104 126.94 104 164 104 C161.49773825 125.68626851 158.7760164 147.34707206 156 169 C120.03 169 84.06 169 47 169 C45.68 180.22 44.36 191.44 43 203 C42.67 204.65 42.34 206.3 42 208 C81.27 208 120.54 208 161 208 C154 267 154 267 153 273 C91.62 273 30.24 273 -33 273 C-32.39523342 264.53326786 -31.76117313 256.19821038 -30.70959473 247.79664612 C-30.58285574 246.76056794 -30.45611676 245.72448975 -30.3255372 244.65701526 C-29.90593663 241.23389245 -29.48130682 237.81141378 -29.05664062 234.38891602 C-28.7523972 231.91551889 -28.44846586 229.44208337 -28.14482117 226.96861267 C-27.40868373 220.97871977 -26.669288 214.98923741 -25.92838132 208.99993325 C-25.06461078 202.01608133 -24.20479612 195.03174404 -23.3451696 188.04738104 C-21.81124179 175.58535406 -20.27404762 163.12373226 -18.73486328 150.66235352 C-17.24293249 138.58350063 -15.75288657 126.50441742 -14.26513672 114.42504883 C-14.17336798 113.67996189 -14.08159925 112.93487496 -13.98704964 112.16720963 C-13.61812702 109.17182039 -13.24921008 106.17643045 -12.88030246 103.18103937 C-11.2881783 90.25396628 -9.69454114 77.32707965 -8.10067153 64.40022168 C-7.84317794 62.31176644 -7.58571751 60.22330713 -7.32826424 58.13484693 C-6.35080968 50.20605917 -5.37259182 42.27736624 -4.39325905 34.3488102 C-4.09673719 31.94744412 -3.80044047 29.54605023 -3.50438499 27.14462662 C-3.10035929 23.86782851 -2.69549532 20.59113506 -2.29040527 17.31446838 C-2.11486862 15.88859928 -2.11486862 15.88859928 -1.93578577 14.43392473 C-1.82642616 13.55080549 -1.71706655 12.66768625 -1.60439301 11.75780582 C-1.51114416 11.0025367 -1.41789531 10.24726757 -1.32182074 9.4691115 C-0.90991863 6.30886692 -0.45070632 3.15494422 0 0 Z " fill="#013237" transform="translate(1388,602)"/>
<path d="M0 0 C-1.3905328 3.11159151 -3.02337417 5.30433009 -5.37890625 7.7578125 C-6.04825195 8.46067383 -6.71759766 9.16353516 -7.40722656 9.88769531 C-8.1184668 10.62600586 -8.82970703 11.36431641 -9.5625 12.125 C-11.02813931 13.66330491 -12.49298897 15.20236258 -13.95703125 16.7421875 C-15.01204834 17.84965332 -15.01204834 17.84965332 -16.08837891 18.97949219 C-19.04608129 22.1056665 -21.91250687 25.30903281 -24.7734375 28.5234375 C-28.11216555 32.23704028 -31.51750101 35.88907557 -34.92871094 39.53613281 C-37.45380601 42.25249755 -39.85142534 44.97445609 -42 48 C-45.96690688 47.33402293 -48.90236577 45.37746017 -52.3125 43.3125 C-67.19278612 34.58469654 -82.28845062 29.79958482 -99.625 29.625 C-100.57890625 29.61098145 -101.5328125 29.59696289 -102.515625 29.58251953 C-114.29500524 29.66161661 -124.21151004 32.58902025 -132.875 40.6875 C-135.8924916 45.39123691 -137.65903831 50.41945164 -136.62109375 56.05859375 C-135.03252268 60.27965403 -132.79585463 62.70667116 -129 65 C-121.70775542 68.02549852 -114.26973579 70.0624643 -106.5859375 71.8046875 C-104.42054356 72.3110724 -102.25517994 72.81758695 -100.08984375 73.32421875 C-96.74078408 74.0993329 -93.39103823 74.87131983 -90.04052734 75.64013672 C-63.58874329 81.73118775 -33.11909668 88.865463 -17.42578125 113.3984375 C-11.69590464 123.85350002 -8.60178457 134.21552363 -8.6875 146.125 C-8.69487183 147.35996216 -8.69487183 147.35996216 -8.70239258 148.61987305 C-9.1852558 174.22648102 -20.37588059 195.84101426 -38.23388672 213.6003418 C-56.55407052 231.20191994 -81.24044915 240.32175187 -106 244 C-106.85335938 244.13148438 -107.70671875 244.26296875 -108.5859375 244.3984375 C-136.56448432 247.93156457 -165.22287781 241.72234227 -191 231 C-192.17780029 230.51273438 -192.17780029 230.51273438 -193.37939453 230.015625 C-205.31070553 225.0184125 -216.25017925 219.19157003 -227 212 C-222.43764023 204.76032147 -217.76920545 197.60596929 -212.97265625 190.51953125 C-212.33887558 189.58066574 -211.70509491 188.64180023 -211.05210876 187.67448425 C-209.0569397 184.71956329 -207.05975873 181.76600883 -205.0625 178.8125 C-203.69713143 176.79110626 -202.33189588 174.76962267 -200.96679688 172.74804688 C-197.64606581 167.83099311 -194.32368852 162.91505509 -191 158 C-179.38921327 163.76754386 -179.38921327 163.76754386 -174.99609375 166.125 C-158.44655485 174.91651571 -140.69390059 180.40400794 -121.875 180.375 C-120.78131104 180.37338867 -119.68762207 180.37177734 -118.56079102 180.37011719 C-106.88251021 180.19464622 -92.00980217 178.88600875 -83.23046875 170.26171875 C-79.68300706 166.24901618 -77.84262779 163.633302 -77.6875 158.1875 C-77.63142578 156.90939453 -77.63142578 156.90939453 -77.57421875 155.60546875 C-78.14823073 152.0929367 -79.59553721 150.59922019 -82 148 C-89.76630826 143.5568667 -98.78154292 141.52540191 -107.40234375 139.40625 C-109.29717979 138.92624652 -111.19201354 138.44623378 -113.08671665 137.96570587 C-116.36839093 137.13611487 -119.65308387 136.31865463 -122.9375 135.5 C-126.86171975 134.52090808 -130.78516847 133.53904301 -134.70570374 132.54528809 C-137.13253274 131.93099327 -139.56117138 131.32378375 -141.9919281 130.72521973 C-163.02531925 125.40267751 -182.61839583 116.38542345 -194.62109375 97.44140625 C-204.55936713 79.96888073 -206.95865219 60.3502898 -202.5625 40.6875 C-198.17990168 25.89430848 -191.16988983 12.58468628 -181 1 C-180.36707031 0.2678125 -179.73414063 -0.464375 -179.08203125 -1.21875 C-131.4300395 -52.42686053 -49.2635005 -40.61012753 0 0 Z " fill="#013237" transform="translate(1335,633)"/>
<path d="M0 0 C4.84347911 3.67509599 7.99542837 7.45463064 11.25 12.5625 C11.683125 13.22185547 12.11625 13.88121094 12.5625 14.56054688 C18 22.90979456 18 22.90979456 18 28 C18.66 28 19.32 28 20 28 C20.80008365 29.97577908 21.58959921 31.95583847 22.375 33.9375 C22.81585938 35.03964844 23.25671875 36.14179687 23.7109375 37.27734375 C26.31073504 44.78524391 27.31510945 51.83080818 27.3359375 59.7578125 C27.3459227 61.11699295 27.3459227 61.11699295 27.35610962 62.50363159 C27.36617401 64.4112548 27.37092858 66.31891277 27.37060547 68.2265625 C27.3749575 71.09696758 27.41128532 73.9658056 27.44921875 76.8359375 C27.53515939 90.77068535 25.65990846 102.18774925 20 115 C19.34 115 18.68 115 18 115 C17.88398438 115.721875 17.76796875 116.44375 17.6484375 117.1875 C15.4425507 126.75520178 8.62202952 134.18367935 2.29296875 141.34765625 C0.01759791 143.75927356 0.01759791 143.75927356 -1 146 C-1.66 146 -2.32 146 -3 146 C-3 146.66 -3 147.32 -3 148 C-23.12186666 167.42376108 -49.42042498 178.26900637 -77.27734375 178.09375 C-78.36853012 178.09016479 -79.45971649 178.08657959 -80.58396912 178.08288574 C-92.91260022 178.02353765 -105.2370164 177.77005624 -117.5625 177.5 C-125.296875 177.335 -133.03125 177.17 -141 177 C-141 209.01 -141 241.02 -141 274 C-166.74 274 -192.48 274 -219 274 C-219.16065467 245.87204423 -219.16065467 245.87204423 -219.20101547 231.94864178 C-219.22315563 224.42732799 -219.25123575 216.90619222 -219.30175781 209.38500977 C-219.34603121 202.79089219 -219.36915339 196.19691645 -219.37950897 189.60264397 C-219.38688673 187.08970038 -219.40129373 184.57676707 -219.42292023 182.06390572 C-219.45205306 178.53789805 -219.45595171 175.01268137 -219.45410156 171.48657227 C-219.46848267 170.45294556 -219.48286377 169.41931885 -219.49768066 168.35437012 C-219.42508938 155.52784887 -213.01251888 147.10530694 -204.5 138.0625 C-177.44551421 111.80962861 -136.52406242 103.49108062 -100.3125 102.875 C-96.86398602 102.80666461 -93.41605448 102.73150174 -89.96806335 102.64041138 C-87.84908633 102.58523782 -85.72971509 102.54292448 -83.61018372 102.51657104 C-65.22959061 102.06757217 -47.81879765 93.82859237 -34.55859375 81.28515625 C-33 80 -33 80 -31 80 C-31 79.34 -31 78.68 -31 78 C-30.34 78 -29.68 78 -29 78 C-28.731875 77.40960937 -28.46375 76.81921875 -28.1875 76.2109375 C-26.98927942 73.98003997 -25.72991005 72.46302942 -24 70.625 C-7.70505489 52.22966695 2.34486611 31.90588584 1 7 C0.72315589 4.65301469 0.3744583 2.33432473 0 0 Z " fill="#4CA771" transform="translate(348,630)"/>
<path d="M0 0 C22.44 0 44.88 0 68 0 C62.15309648 48.56509657 56.26957905 97.12562752 50.31817627 145.67803955 C49.68872083 150.81331383 49.06014252 155.94869429 48.43231201 161.08416748 C47.68747602 167.17597075 46.94071649 173.26753517 46.19244385 179.35891724 C45.91549029 181.61583658 45.63917287 183.87283409 45.36352539 186.12991333 C44.9855087 189.22403813 44.60512418 192.31786282 44.22412109 195.41162109 C44.11406424 196.31685705 44.00400738 197.22209301 43.89061546 198.15476036 C43.78736269 198.98914446 43.68410992 199.82352856 43.57772827 200.68319702 C43.48969625 201.40107077 43.40166424 202.11894451 43.31096458 202.85857201 C42.96315876 205.25370369 42.47465067 207.62674666 42 210 C77.31 210 112.62 210 149 210 C147.2984375 224.2003125 147.2984375 224.2003125 145.5625 238.6875 C145.20615479 241.66998779 144.84980957 244.65247559 144.48266602 247.7253418 C144.19823504 250.09165282 143.91365836 252.45794634 143.62890625 254.82421875 C143.48287964 256.05096313 143.33685303 257.27770752 143.18640137 258.54162598 C143.04440308 259.71858032 142.90240479 260.89553467 142.75610352 262.1081543 C142.57290306 263.63704536 142.57290306 263.63704536 142.38600159 265.19682312 C142.02562649 267.8138982 141.51809385 270.40953074 141 273 C83.58 273 26.16 273 -33 273 C-32.39523342 264.53326786 -31.76117313 256.19821038 -30.70959473 247.79664612 C-30.58285574 246.76056794 -30.45611676 245.72448975 -30.3255372 244.65701526 C-29.90593663 241.23389245 -29.48130682 237.81141378 -29.05664062 234.38891602 C-28.7523972 231.91551889 -28.44846586 229.44208337 -28.14482117 226.96861267 C-27.40868373 220.97871977 -26.669288 214.98923741 -25.92838132 208.99993325 C-25.06461078 202.01608133 -24.20479612 195.03174404 -23.3451696 188.04738104 C-21.81124179 175.58535406 -20.27404762 163.12373226 -18.73486328 150.66235352 C-17.24293249 138.58350063 -15.75288657 126.50441742 -14.26513672 114.42504883 C-14.17336798 113.67996189 -14.08159925 112.93487496 -13.98704964 112.16720963 C-13.61812702 109.17182039 -13.24921008 106.17643045 -12.88030246 103.18103937 C-11.2881783 90.25396628 -9.69454114 77.32707965 -8.10067153 64.40022168 C-7.84317794 62.31176644 -7.58571751 60.22330713 -7.32826424 58.13484693 C-6.35080968 50.20605917 -5.37259182 42.27736624 -4.39325905 34.3488102 C-4.09673719 31.94744412 -3.80044047 29.54605023 -3.50438499 27.14462662 C-3.10035929 23.86782851 -2.69549532 20.59113506 -2.29040527 17.31446838 C-2.11486862 15.88859928 -2.11486862 15.88859928 -1.93578577 14.43392473 C-1.82642616 13.55080549 -1.71706655 12.66768625 -1.60439301 11.75780582 C-1.51114416 11.0025367 -1.41789531 10.24726757 -1.32182074 9.4691115 C-0.90991863 6.30886692 -0.45070632 3.15494422 0 0 Z " fill="#013237" transform="translate(1823,602)"/>
<path d="M0 0 C22.44 0 44.88 0 68 0 C62.15309648 48.56509657 56.26957905 97.12562752 50.31817627 145.67803955 C49.68872083 150.81331383 49.06014252 155.94869429 48.43231201 161.08416748 C47.68747602 167.17597075 46.94071649 173.26753517 46.19244385 179.35891724 C45.91549029 181.61583658 45.63917287 183.87283409 45.36352539 186.12991333 C44.9855087 189.22403813 44.60512418 192.31786282 44.22412109 195.41162109 C44.11406424 196.31685705 44.00400738 197.22209301 43.89061546 198.15476036 C43.78736269 198.98914446 43.68410992 199.82352856 43.57772827 200.68319702 C43.48969625 201.40107077 43.40166424 202.11894451 43.31096458 202.85857201 C42.96315876 205.25370369 42.47465067 207.62674666 42 210 C77.31 210 112.62 210 149 210 C147.2984375 224.2003125 147.2984375 224.2003125 145.5625 238.6875 C145.20615479 241.66998779 144.84980957 244.65247559 144.48266602 247.7253418 C144.19823504 250.09165282 143.91365836 252.45794634 143.62890625 254.82421875 C143.48287964 256.05096313 143.33685303 257.27770752 143.18640137 258.54162598 C143.04440308 259.71858032 142.90240479 260.89553467 142.75610352 262.1081543 C142.57290306 263.63704536 142.57290306 263.63704536 142.38600159 265.19682312 C142.02562649 267.8138982 141.51809385 270.40953074 141 273 C83.58 273 26.16 273 -33 273 C-32.39523342 264.53326786 -31.76117313 256.19821038 -30.70959473 247.79664612 C-30.58285574 246.76056794 -30.45611676 245.72448975 -30.3255372 244.65701526 C-29.90593663 241.23389245 -29.48130682 237.81141378 -29.05664062 234.38891602 C-28.7523972 231.91551889 -28.44846586 229.44208337 -28.14482117 226.96861267 C-27.40868373 220.97871977 -26.669288 214.98923741 -25.92838132 208.99993325 C-25.06461078 202.01608133 -24.20479612 195.03174404 -23.3451696 188.04738104 C-21.81124179 175.58535406 -20.27404762 163.12373226 -18.73486328 150.66235352 C-17.24293249 138.58350063 -15.75288657 126.50441742 -14.26513672 114.42504883 C-14.17336798 113.67996189 -14.08159925 112.93487496 -13.98704964 112.16720963 C-13.61812702 109.17182039 -13.24921008 106.17643045 -12.88030246 103.18103937 C-11.2881783 90.25396628 -9.69454114 77.32707965 -8.10067153 64.40022168 C-7.84317794 62.31176644 -7.58571751 60.22330713 -7.32826424 58.13484693 C-6.35080968 50.20605917 -5.37259182 42.27736624 -4.39325905 34.3488102 C-4.09673719 31.94744412 -3.80044047 29.54605023 -3.50438499 27.14462662 C-3.10035929 23.86782851 -2.69549532 20.59113506 -2.29040527 17.31446838 C-2.11486862 15.88859928 -2.11486862 15.88859928 -1.93578577 14.43392473 C-1.82642616 13.55080549 -1.71706655 12.66768625 -1.60439301 11.75780582 C-1.51114416 11.0025367 -1.41789531 10.24726757 -1.32182074 9.4691115 C-0.90991863 6.30886692 -0.45070632 3.15494422 0 0 Z " fill="#013237" transform="translate(1613,602)"/>
<path d="M0 0 C39.89104765 -0.1209091 39.89104765 -0.1209091 56.64453125 -0.14648438 C68.19909676 -0.16426512 79.7535965 -0.18513518 91.30810547 -0.22631836 C99.7242816 -0.25630133 108.14040422 -0.27559407 116.55663228 -0.28226548 C121.00938752 -0.28616271 125.46198974 -0.29526654 129.91469574 -0.31719017 C134.11387876 -0.33769618 138.31284708 -0.34380557 142.51207542 -0.33932304 C144.04542651 -0.34014198 145.57878549 -0.34602304 147.11209297 -0.35761642 C155.9949976 -0.42143215 164.57175406 -0.14104926 173 3 C173.99 3.99 173.99 3.99 175 5 C174.26652344 5.83144531 173.53304687 6.66289063 172.77734375 7.51953125 C169.87969936 11.00058028 167.72002856 14.71850663 165.5625 18.6875 C164.9756543 19.74360474 164.9756543 19.74360474 164.37695312 20.82104492 C162.67453094 23.89388893 161.01111592 26.97842045 159.40234375 30.1015625 C155.74294691 37.17571684 151.21092361 42.99358376 146 49 C145.04287109 50.175625 145.04287109 50.175625 144.06640625 51.375 C133.3638013 64.19142506 117.68941309 74.57143662 101 77 C92.77328392 77.42926508 84.50104894 77.07317454 76.27124023 76.86303711 C52.98946581 76.31585363 35.8190875 80.99448684 18 97 C17.37738281 97.55171875 16.75476563 98.1034375 16.11328125 98.671875 C11.61618273 102.90690484 7.96766341 107.79343285 4.28686523 112.73339844 C3.21185041 114.17123865 2.10850796 115.58782032 1 117 C0.67 117 0.34 117 0 117 C0 78.39 0 39.78 0 0 Z " fill="#C0E6BA" transform="translate(129,596)"/>
<path d="M0 0 C5.71778037 -1.10931787 11.37770041 -1.93072794 17 0 C22.00217607 3.91841591 25.01384168 9.90961782 28.2578125 15.26513672 C31.37652424 20.16084986 34.99454713 24.6771605 38.5625 29.25 C39.89987672 30.98226206 41.23466387 32.71652759 42.56640625 34.453125 C43.13302979 35.18692383 43.69965332 35.92072266 44.28344727 36.67675781 C46.28759225 39.38923735 48.14760172 42.18226741 50 45 C50.04949353 40.08871933 50.08576382 35.17758434 50.10986328 30.26611328 C50.1199115 28.59584015 50.13355236 26.92558458 50.15087891 25.25537109 C50.17517926 22.85249496 50.18649487 20.44985173 50.1953125 18.046875 C50.20563507 17.30193787 50.21595764 16.55700073 50.22659302 15.78948975 C50.2273976 12.05889237 50.20519294 9.10590554 48 6 C46.06896092 4.88526866 46.06896092 4.88526866 43.875 4.25 C43.15054687 4.00765625 42.42609375 3.7653125 41.6796875 3.515625 C40.84824219 3.26039063 40.84824219 3.26039063 40 3 C40 2.01 40 1.02 40 0 C56.17 0 72.34 0 89 0 C89 0.99 89 1.98 89 3 C86.69 3.33 84.38 3.66 82 4 C85.60958111 15.33833126 89.63411884 26.43868836 94.10327148 37.46899414 C94.66703491 38.87459595 94.66703491 38.87459595 95.2421875 40.30859375 C95.5810498 41.14189209 95.91991211 41.97519043 96.26904297 42.83374023 C97 45 97 45 97 48 C97.66 48 98.32 48 99 48 C99.16435547 46.9797876 99.16435547 46.9797876 99.33203125 45.93896484 C100.1205795 42.46946782 101.36105772 39.26581352 102.6875 35.9765625 C103.22674403 34.61205089 103.76580071 33.24746523 104.3046875 31.8828125 C105.15115087 29.75341276 105.99999251 27.62501869 106.85253906 25.49804688 C107.67918263 23.43095902 108.49631494 21.360298 109.3125 19.2890625 C109.56668701 18.66278961 109.82087402 18.03651672 110.08276367 17.39126587 C111.72033965 13.2170758 112.51774938 9.42181271 113 5 C108.545 4.01 108.545 4.01 104 3 C104 2.01 104 1.02 104 0 C127.43 0 150.86 0 175 0 C175 4.95 175 9.9 175 15 C173.02 14.505 173.02 14.505 171 14 C169.98799072 12.26060906 168.97746123 10.51430325 168.125 8.69140625 C166.6770201 6.5144087 165.40022733 6.00382344 163 5 C160.88185683 4.64088781 160.88185683 4.64088781 158.671875 4.5859375 C157.9509668 4.55032715 157.23005859 4.5147168 156.48730469 4.47802734 C155.13233887 4.42702881 155.13233887 4.42702881 153.75 4.375 C150.8625 4.25125 147.975 4.1275 145 4 C145 11.92 145 19.84 145 28 C147.84625 27.87625 147.84625 27.87625 150.75 27.75 C151.81734375 27.70359375 152.8846875 27.6571875 153.984375 27.609375 C157.57533777 26.88374004 158.7497721 25.83362031 161 23 C162.25436187 20.36777038 162.25436187 20.36777038 163 18 C163.99 18 164.98 18 166 18 C166 25.92 166 33.84 166 42 C165.01 42 164.02 42 163 42 C162.73445313 41.43410156 162.46890625 40.86820313 162.1953125 40.28515625 C161.66550781 39.18494141 161.66550781 39.18494141 161.125 38.0625 C160.77695313 37.33160156 160.42890625 36.60070312 160.0703125 35.84765625 C159.1315023 33.83667541 159.1315023 33.83667541 157 33 C154.9625237 32.77141886 152.91959697 32.58975722 150.875 32.4375 C149.77929688 32.35371094 148.68359375 32.26992188 147.5546875 32.18359375 C146.29011719 32.09271484 146.29011719 32.09271484 145 32 C145.08060591 35.62592996 145.19346817 39.25014402 145.3125 42.875 C145.33505859 43.90753906 145.35761719 44.94007813 145.38085938 46.00390625 C145.41630859 46.99003906 145.45175781 47.97617187 145.48828125 48.9921875 C145.51446533 49.90339355 145.54064941 50.81459961 145.56762695 51.75341797 C145.71031006 52.49479004 145.85299316 53.23616211 146 54 C149.81601142 56.54400761 152.95414856 56.33116914 157.375 56.3125 C158.50808594 56.33666992 158.50808594 56.33666992 159.6640625 56.36132812 C164.24724263 56.3653344 167.34989851 56.05497625 171 53 C172.74936517 50.5410734 172.74936517 50.5410734 174.125 47.8125 C175.5703125 45.08203125 175.5703125 45.08203125 177 43 C177.99 43 178.98 43 180 43 C179.67 48.94 179.34 54.88 179 61 C161.84 61 144.68 61 127 61 C127 60.01 127 59.02 127 58 C128.134375 57.690625 129.26875 57.38125 130.4375 57.0625 C133.78775099 56.37075469 133.78775099 56.37075469 135 55 C135.09319449 53.4651703 135.117458 51.92607918 135.11352539 50.38842773 C135.11344986 49.40748642 135.11337433 48.4265451 135.11329651 47.4158783 C135.10813522 46.3492244 135.10297394 45.2825705 135.09765625 44.18359375 C135.0962413 43.0974025 135.09482635 42.01121124 135.09336853 40.8921051 C135.08775048 37.40720925 135.07519492 33.92237658 135.0625 30.4375 C135.05748733 28.08138113 135.05292402 25.72526126 135.04882812 23.36914062 C135.03777519 17.57940536 135.02101951 11.78970719 135 6 C130.30270725 3.98914541 126.81644301 3.76529642 121.75 4.1875 C119.11151941 5.41250884 118.98669365 7.32175391 118 10 C117.28248751 11.7806569 116.5641739 13.56099113 115.84521484 15.34106445 C115.42493011 16.3817659 115.00464539 17.42246735 114.57162476 18.4947052 C114.12259796 19.6063353 113.67357117 20.71796539 113.2109375 21.86328125 C112.74765045 23.01040085 112.2843634 24.15752045 111.80703735 25.33940125 C110.58070721 28.37580729 109.35430547 31.4121844 108.12786865 34.44854736 C106.87424788 37.55226239 105.62072317 40.65601622 104.3671875 43.75976562 C101.91154531 49.83987888 99.45580867 55.91995398 97 62 C94.64250183 61.79573059 94.64250183 61.79573059 92 61 C90.69087219 58.97050476 90.69087219 58.97050476 89.7199707 56.26831055 C89.34640945 55.26023849 88.97284821 54.25216644 88.58796692 53.21354675 C88.01268501 51.56676689 88.01268501 51.56676689 87.42578125 49.88671875 C87.01587448 48.7656221 86.60596771 47.64452545 86.18363953 46.48945618 C84.87402532 42.89544043 83.59273431 39.29207349 82.3125 35.6875 C81.01545766 32.09607838 79.71281927 28.50672684 78.40922546 24.91767883 C77.59937862 22.68141552 76.7945354 20.44333258 75.99519348 18.20329285 C75.63108871 17.18576431 75.26698395 16.16823578 74.8918457 15.11987305 C74.57383499 14.22576218 74.25582428 13.33165131 73.92817688 12.41044617 C72.34901957 7.97864686 72.34901957 7.97864686 69.1640625 4.7421875 C66.6800508 3.89027013 64.9800369 3.85491256 62.375 4.125 C61.21097656 4.22167969 61.21097656 4.22167969 60.0234375 4.3203125 C57.87147322 4.80941558 57.87147322 4.80941558 56.89346313 6.71002197 C55.85057436 9.38298327 55.72211506 11.45194579 55.68115234 14.31933594 C55.66128265 15.38013367 55.64141296 16.4409314 55.62094116 17.53387451 C55.60361435 19.24187225 55.60361435 19.24187225 55.5859375 20.984375 C55.56657135 22.15510559 55.5472052 23.32583618 55.5272522 24.53204346 C55.46747293 28.27128819 55.421077 32.01056374 55.375 35.75 C55.33681876 38.28516968 55.29776695 40.8203264 55.2578125 43.35546875 C55.16177263 49.57019754 55.07672009 55.78500432 55 62 C50.20184326 61.1925354 50.20184326 61.1925354 48.38525391 59.4597168 C47.92038574 58.79625244 47.45551758 58.13278809 46.9765625 57.44921875 C46.43773437 56.69745361 45.89890625 55.94568848 45.34375 55.17114258 C44.7765625 54.35154053 44.209375 53.53193848 43.625 52.6875 C42.38916568 50.95491199 41.15214543 49.2231694 39.9140625 47.4921875 C39.27500977 46.59081055 38.63595703 45.68943359 37.97753906 44.76074219 C34.72636952 40.22194896 31.3620951 35.76939674 28 31.3125 C26.79146569 29.70457812 25.58312411 28.09651136 24.375 26.48828125 C23.53388672 25.36993896 23.53388672 25.36993896 22.67578125 24.22900391 C20.11410571 20.82164701 17.55689286 17.41094658 15 14 C14.95052047 19.19611221 14.91424273 24.39208691 14.89013672 29.58837891 C14.88008616 31.35565582 14.86644358 33.12291613 14.84912109 34.89013672 C14.82483115 37.43200785 14.81350745 39.97365889 14.8046875 42.515625 C14.79436493 43.30430969 14.78404236 44.09299438 14.77340698 44.90557861 C14.74228357 50.27555332 14.74228357 50.27555332 17 55 C18.93103908 56.11473134 18.93103908 56.11473134 21.125 56.75 C21.84945313 56.99234375 22.57390625 57.2346875 23.3203125 57.484375 C23.87460938 57.65453125 24.42890625 57.8246875 25 58 C25 58.99 25 59.98 25 61 C17.08 61 9.16 61 1 61 C1 60.01 1 59.02 1 58 C2.134375 57.566875 3.26875 57.13375 4.4375 56.6875 C5.613125 56.130625 6.78875 55.57375 8 55 C8.91023719 52.26928843 9.12632335 50.67536765 9.12939453 47.86743164 C9.13254669 47.03969742 9.13569885 46.2119632 9.13894653 45.35914612 C9.1369223 44.46847946 9.13489807 43.57781281 9.1328125 42.66015625 C9.13376923 41.7416539 9.13472595 40.82315155 9.13571167 39.8768158 C9.13639217 37.93423392 9.13454695 35.99164977 9.13037109 34.04907227 C9.12502713 31.07758461 9.13031735 28.10624853 9.13671875 25.13476562 C9.13605783 23.2473955 9.13477637 21.36002547 9.1328125 19.47265625 C9.13483673 18.58401382 9.13686096 17.6953714 9.13894653 16.77980042 C9.13579437 15.94891403 9.13264221 15.11802765 9.12939453 14.26196289 C9.12859894 13.53376846 9.12780334 12.80557404 9.12698364 12.05531311 C8.99196868 9.87000782 8.76804509 8.05550518 8 6 C5.08333333 4.75 5.08333333 4.75 2 4 C1.34 3.67 0.68 3.34 0 3 C0 2.01 0 1.02 0 0 Z " fill="#013237" transform="translate(1161,955)"/>
<path d="M0 0 C116.16 0 232.32 0 352 0 C352 2.97 352 5.94 352 9 C235.84 9 119.68 9 0 9 C0 6.03 0 3.06 0 0 Z " fill="#013237" transform="translate(1671,983)"/>
<path d="M0 0 C116.16 0 232.32 0 352 0 C352 2.97 352 5.94 352 9 C235.84 9 119.68 9 0 9 C0 6.03 0 3.06 0 0 Z " fill="#013237" transform="translate(76,983)"/>
<path d="M0 0 C6.93 0 13.86 0 21 0 C26.61 14.52 32.22 29.04 38 44 C41.650625 35.0590625 41.650625 35.0590625 45.375 25.9375 C46.13989746 24.06956787 46.90479492 22.20163574 47.69287109 20.27709961 C48.30334815 18.77729829 48.91355476 17.27738684 49.5234375 15.77734375 C49.83708252 15.01425903 50.15072754 14.25117432 50.47387695 13.46496582 C50.93032593 12.33943298 50.93032593 12.33943298 51.39599609 11.19116211 C51.65802826 10.54940536 51.92006042 9.90764862 52.19003296 9.2464447 C53.28264883 6.21607308 54.11503282 3.09738514 55 0 C61.93 0 68.86 0 76 0 C76 0.99 76 1.98 76 3 C73.36 3.99 70.72 4.98 68 6 C68 22.17 68 38.34 68 55 C72.30039837 57.15019919 74.28812373 57.41332248 79 57 C83.54514484 54.9330361 84.94287459 52.82390031 86.76171875 48.2421875 C87.23641602 47.07002686 87.71111328 45.89786621 88.20019531 44.69018555 C88.69630171 43.41858891 89.1920626 42.14685744 89.6875 40.875 C90.20654169 39.57729349 90.72706615 38.28017913 91.24902344 36.98364258 C92.31820768 34.31993204 93.37782006 31.65272135 94.42919922 28.98193359 C95.93646727 25.1539087 97.46747812 21.33595162 99.00390625 17.51953125 C101.35093282 11.68559861 103.68201304 5.84552752 106 0 C107.32 0 108.64 0 110 0 C110.20187424 0.51205994 110.40374847 1.02411987 110.61174011 1.55169678 C112.73594952 6.93914605 114.86178892 12.32595016 116.98852539 17.71240234 C117.7792981 19.71582203 118.56967163 21.71939933 119.35961914 23.72314453 C121.57823686 29.3503786 123.80704764 34.97337452 126.04696655 40.59216309 C126.88903227 42.71964028 127.71435501 44.85249225 128.5324707 46.98925781 C128.95488037 48.06530273 129.37729004 49.14134766 129.8125 50.25 C130.1528125 51.136875 130.493125 52.02375 130.84375 52.9375 C132.20744448 55.37003611 133.28612044 56.12716464 135.8125 57.25 C136.864375 57.4975 137.91625 57.745 139 58 C139 58.99 139 59.98 139 61 C130.75 61 122.5 61 114 61 C114 60.01 114 59.02 114 58 C117.465 57.505 117.465 57.505 121 57 C120.58427734 55.66195312 120.58427734 55.66195312 120.16015625 54.296875 C119.61681641 52.54117188 119.61681641 52.54117188 119.0625 50.75 C118.52302734 49.00976562 118.52302734 49.00976562 117.97265625 47.234375 C117.25283875 44.84076501 116.60621808 42.4248723 116 40 C108.74 40.33 101.48 40.66 94 41 C91.43971319 48.50224223 91.43971319 48.50224223 90 56 C92.97 56.66 95.94 57.32 99 58 C99 58.99 99 59.98 99 61 C82.5 61 66 61 49 61 C49 60.01 49 59.02 49 58 C50.134375 57.690625 51.26875 57.38125 52.4375 57.0625 C55.78775099 56.37075469 55.78775099 56.37075469 57 55 C57.0928726 53.58774954 57.11746772 52.17091066 57.11352539 50.75561523 C57.11344986 49.85475693 57.11337433 48.95389862 57.11329651 48.02574158 C57.10813522 47.04658279 57.10297394 46.06742401 57.09765625 45.05859375 C57.0962413 44.06118668 57.09482635 43.0637796 57.09336853 42.03614807 C57.08775114 38.83656876 57.07519571 35.63705831 57.0625 32.4375 C57.05748724 30.27408955 57.05292395 28.11067801 57.04882812 25.94726562 C57.03777607 20.63148675 57.02102104 15.31574829 57 10 C56.6717347 10.80686752 56.6717347 10.80686752 56.33683777 11.6300354 C54.05220239 17.24426944 51.76423879 22.85713875 49.47436523 28.46923828 C48.62097673 30.56199105 47.76842847 32.65508667 46.91674805 34.74853516 C45.69021475 37.76295734 44.46063387 40.77612092 43.23046875 43.7890625 C42.85222458 44.72054108 42.47398041 45.65201965 42.08427429 46.61172485 C40.21806882 51.17408229 38.28535708 55.63158577 36 60 C33 59 33 59 31.91792297 56.98155212 C31.58705185 56.09552811 31.25618073 55.20950409 30.9152832 54.29663086 C30.34503166 52.79518776 30.34503166 52.79518776 29.76325989 51.26341248 C29.36314194 50.1748848 28.96302399 49.08635712 28.55078125 47.96484375 C28.13330124 46.85645645 27.71582123 45.74806915 27.28569031 44.60609436 C25.95053068 41.05382346 24.63138898 37.49583993 23.3125 33.9375 C22.41185349 31.53281102 21.51017409 29.12850863 20.60742188 26.72460938 C18.39292881 20.82084514 16.19156907 14.91230952 14 9 C13.97524777 14.88988947 13.95711518 20.77974854 13.94506836 26.66967773 C13.94004522 28.67261279 13.93322555 30.67554419 13.92456055 32.6784668 C13.91240655 35.56039331 13.90675143 38.44227125 13.90234375 41.32421875 C13.89718246 42.21711105 13.89202118 43.11000336 13.88670349 44.029953 C13.886333 48.1527264 13.95231582 51.97964792 15 56 C17.31 56.66 19.62 57.32 22 58 C22 58.99 22 59.98 22 61 C14.74 61 7.48 61 0 61 C0 60.01 0 59.02 0 58 C1.134375 57.566875 2.26875 57.13375 3.4375 56.6875 C4.613125 56.130625 5.78875 55.57375 7 55 C7.92577169 52.22268492 8.13098878 50.53637435 8.14526367 47.66796875 C8.15164352 46.79696533 8.15802338 45.92596191 8.16459656 45.02856445 C8.16570938 44.09101318 8.1668222 43.15346191 8.16796875 42.1875 C8.17129715 41.22223389 8.17462555 40.25696777 8.17805481 39.26245117 C8.18311754 37.22152178 8.18546334 35.18058411 8.18530273 33.13964844 C8.18749144 30.01223186 8.20566019 26.88516675 8.22460938 23.7578125 C8.22754294 21.77604288 8.22952798 19.79427157 8.23046875 17.8125 C8.23765427 16.87494873 8.24483978 15.93739746 8.25224304 14.97143555 C8.24916641 14.10043213 8.24608978 13.22942871 8.24291992 12.33203125 C8.24505745 11.18311401 8.24505745 11.18311401 8.24723816 10.01098633 C8.11398767 7.68453882 8.11398767 7.68453882 6 5 C2.94570927 3.78715124 2.94570927 3.78715124 0 3 C0 2.01 0 1.02 0 0 Z M104 13 C102.66128359 16.45627381 101.32994608 19.91534297 100 23.375 C99.42765625 24.85226562 99.42765625 24.85226562 98.84375 26.359375 C98.4828125 27.30039062 98.121875 28.24140625 97.75 29.2109375 C97.24726562 30.51490479 97.24726562 30.51490479 96.734375 31.84521484 C95.89246968 33.93609786 95.89246968 33.93609786 96 36 C101.94 36 107.88 36 114 36 C112.26718538 30.6191546 110.41163887 25.29746732 108.4375 20 C107.81681641 18.329375 107.81681641 18.329375 107.18359375 16.625 C106.27606439 13.87488577 106.27606439 13.87488577 104 13 Z " fill="#013237" transform="translate(453,955)"/>
<path d="M0 0 C4.69560343 -0.07466101 9.39085443 -0.12884101 14.08691406 -0.16479492 C15.68137641 -0.17979745 17.27579808 -0.20020621 18.87011719 -0.22631836 C21.17393077 -0.26308134 23.4771946 -0.27981155 25.78125 -0.29296875 C26.48366821 -0.30845261 27.18608643 -0.32393646 27.90979004 -0.33988953 C34.50029427 -0.34208532 39.88011688 1.19584415 44.9375 5.5 C47.97842462 9.18596924 48.29280778 12.22025135 48.21484375 16.94140625 C47.75326532 21.36416682 45.85414886 24.19202135 42.6875 27.1875 C39.89108069 29.07345721 37.02592042 30.51834242 34 32 C35.87083499 34.52394793 37.74744028 37.04355168 39.625 39.5625 C40.14707031 40.26697266 40.66914062 40.97144531 41.20703125 41.69726562 C47.38565083 51.0503517 47.38565083 51.0503517 56.375 56.9375 C58.169375 57.4634375 58.169375 57.4634375 60 58 C60 58.99 60 59.98 60 61 C54.65635029 61.90513515 49.25510212 62.69221527 44 61 C39.036932 57.23833772 36.09620467 51.28313432 33 46 C31.64994929 43.83646484 30.24930346 41.73434976 28.8125 39.625 C28.26207031 38.75101563 27.71164062 37.87703125 27.14453125 36.9765625 C24.49427307 34.14962691 24.49427307 34.14962691 17 34 C17.33 41.59 17.66 49.18 18 57 C20.64 57.33 23.28 57.66 26 58 C26 58.99 26 59.98 26 61 C17.42 61 8.84 61 0 61 C0 60.01 0 59.02 0 58 C3.465 57.505 3.465 57.505 7 57 C7 40.17 7 23.34 7 6 C4.69 5.01 2.38 4.02 0 3 C0 2.01 0 1.02 0 0 Z M17 4 C17 12.58 17 21.16 17 30 C27.49368973 30.22536073 27.49368973 30.22536073 35.3125 25 C38.13419479 21.65576914 38.34448234 18.35830119 38.28125 14.06640625 C37.8101856 10.6053914 36.26942471 8.57610372 34 6 C28.04057409 3.25721865 28.04057409 3.25721865 17 4 Z " fill="#013237" transform="translate(1467,955)"/>
<path d="M0 0 C4.69560343 -0.07466101 9.39085443 -0.12884101 14.08691406 -0.16479492 C15.68137641 -0.17979745 17.27579808 -0.20020621 18.87011719 -0.22631836 C21.17393077 -0.26308134 23.4771946 -0.27981155 25.78125 -0.29296875 C26.48366821 -0.30845261 27.18608643 -0.32393646 27.90979004 -0.33988953 C34.50029427 -0.34208532 39.88011688 1.19584415 44.9375 5.5 C47.97842462 9.18596924 48.29280778 12.22025135 48.21484375 16.94140625 C47.75326532 21.36416682 45.85414886 24.19202135 42.6875 27.1875 C39.89108069 29.07345721 37.02592042 30.51834242 34 32 C35.87083499 34.52394793 37.74744028 37.04355168 39.625 39.5625 C40.14707031 40.26697266 40.66914062 40.97144531 41.20703125 41.69726562 C47.38565083 51.0503517 47.38565083 51.0503517 56.375 56.9375 C58.169375 57.4634375 58.169375 57.4634375 60 58 C60 58.99 60 59.98 60 61 C54.65635029 61.90513515 49.25510212 62.69221527 44 61 C39.036932 57.23833772 36.09620467 51.28313432 33 46 C31.64994929 43.83646484 30.24930346 41.73434976 28.8125 39.625 C28.26207031 38.75101563 27.71164062 37.87703125 27.14453125 36.9765625 C24.49427307 34.14962691 24.49427307 34.14962691 17 34 C17.33 41.59 17.66 49.18 18 57 C20.64 57.33 23.28 57.66 26 58 C26 58.99 26 59.98 26 61 C17.42 61 8.84 61 0 61 C0 60.01 0 59.02 0 58 C3.465 57.505 3.465 57.505 7 57 C7 40.17 7 23.34 7 6 C4.69 5.01 2.38 4.02 0 3 C0 2.01 0 1.02 0 0 Z M17 4 C17 12.58 17 21.16 17 30 C27.49368973 30.22536073 27.49368973 30.22536073 35.3125 25 C38.13419479 21.65576914 38.34448234 18.35830119 38.28125 14.06640625 C37.8101856 10.6053914 36.26942471 8.57610372 34 6 C28.04057409 3.25721865 28.04057409 3.25721865 17 4 Z " fill="#013237" transform="translate(1047,955)"/>
<path d="M0 0 C5.71778037 -1.10931787 11.37770041 -1.93072794 17 0 C22.00217607 3.91841591 25.01384168 9.90961782 28.2578125 15.26513672 C31.37652424 20.16084986 34.99454713 24.6771605 38.5625 29.25 C39.89987672 30.98226206 41.23466387 32.71652759 42.56640625 34.453125 C43.13302979 35.18692383 43.69965332 35.92072266 44.28344727 36.67675781 C46.28759225 39.38923735 48.14760172 42.18226741 50 45 C50.04949353 40.08871933 50.08576382 35.17758434 50.10986328 30.26611328 C50.1199115 28.59584015 50.13355236 26.92558458 50.15087891 25.25537109 C50.17517926 22.85249496 50.18649487 20.44985173 50.1953125 18.046875 C50.20563507 17.30193787 50.21595764 16.55700073 50.22659302 15.78948975 C50.2273976 12.05889237 50.20519294 9.10590554 48 6 C46.06896092 4.88526866 46.06896092 4.88526866 43.875 4.25 C43.15054687 4.00765625 42.42609375 3.7653125 41.6796875 3.515625 C40.84824219 3.26039063 40.84824219 3.26039063 40 3 C40 2.01 40 1.02 40 0 C47.92 0 55.84 0 64 0 C64 0.99 64 1.98 64 3 C62.865625 3.433125 61.73125 3.86625 60.5625 4.3125 C59.386875 4.869375 58.21125 5.42625 57 6 C56.00175095 8.99474714 55.84675968 11.07345334 55.79467773 14.20581055 C55.77473251 15.26668381 55.75478729 16.32755707 55.73423767 17.420578 C55.71752518 18.56440445 55.70081268 19.7082309 55.68359375 20.88671875 C55.66281265 22.05886429 55.64203156 23.23100983 55.62062073 24.43867493 C55.55516182 28.18822286 55.49625704 31.93784163 55.4375 35.6875 C55.39431132 38.22722091 55.35069692 40.76693462 55.30664062 43.30664062 C55.19948414 49.53768522 55.0977108 55.76880051 55 62 C50.20184326 61.1925354 50.20184326 61.1925354 48.38525391 59.4597168 C47.92038574 58.79625244 47.45551758 58.13278809 46.9765625 57.44921875 C46.43773437 56.69745361 45.89890625 55.94568848 45.34375 55.17114258 C44.7765625 54.35154053 44.209375 53.53193848 43.625 52.6875 C42.38916568 50.95491199 41.15214543 49.2231694 39.9140625 47.4921875 C39.27500977 46.59081055 38.63595703 45.68943359 37.97753906 44.76074219 C34.72636952 40.22194896 31.3620951 35.76939674 28 31.3125 C26.79146569 29.70457812 25.58312411 28.09651136 24.375 26.48828125 C23.53388672 25.36993896 23.53388672 25.36993896 22.67578125 24.22900391 C20.11410571 20.82164701 17.55689286 17.41094658 15 14 C14.95052047 19.19611221 14.91424273 24.39208691 14.89013672 29.58837891 C14.88008616 31.35565582 14.86644358 33.12291613 14.84912109 34.89013672 C14.82483115 37.43200785 14.81350745 39.97365889 14.8046875 42.515625 C14.79436493 43.30430969 14.78404236 44.09299438 14.77340698 44.90557861 C14.74228357 50.27555332 14.74228357 50.27555332 17 55 C18.93103908 56.11473134 18.93103908 56.11473134 21.125 56.75 C21.84945313 56.99234375 22.57390625 57.2346875 23.3203125 57.484375 C23.87460938 57.65453125 24.42890625 57.8246875 25 58 C25 58.99 25 59.98 25 61 C17.08 61 9.16 61 1 61 C1 60.01 1 59.02 1 58 C2.134375 57.566875 3.26875 57.13375 4.4375 56.6875 C5.613125 56.130625 6.78875 55.57375 8 55 C8.91023719 52.26928843 9.12632335 50.67536765 9.12939453 47.86743164 C9.13254669 47.03969742 9.13569885 46.2119632 9.13894653 45.35914612 C9.1369223 44.46847946 9.13489807 43.57781281 9.1328125 42.66015625 C9.13376923 41.7416539 9.13472595 40.82315155 9.13571167 39.8768158 C9.13639217 37.93423392 9.13454695 35.99164977 9.13037109 34.04907227 C9.12502713 31.07758461 9.13031735 28.10624853 9.13671875 25.13476562 C9.13605783 23.2473955 9.13477637 21.36002547 9.1328125 19.47265625 C9.13483673 18.58401382 9.13686096 17.6953714 9.13894653 16.77980042 C9.13579437 15.94891403 9.13264221 15.11802765 9.12939453 14.26196289 C9.12859894 13.53376846 9.12780334 12.80557404 9.12698364 12.05531311 C8.99196868 9.87000782 8.76804509 8.05550518 8 6 C5.08333333 4.75 5.08333333 4.75 2 4 C1.34 3.67 0.68 3.34 0 3 C0 2.01 0 1.02 0 0 Z " fill="#013237" transform="translate(1344,955)"/>
<path d="M0 0 C5.71778037 -1.10931787 11.37770041 -1.93072794 17 0 C22.00217607 3.91841591 25.01384168 9.90961782 28.2578125 15.26513672 C31.37652424 20.16084986 34.99454713 24.6771605 38.5625 29.25 C39.89987672 30.98226206 41.23466387 32.71652759 42.56640625 34.453125 C43.13302979 35.18692383 43.69965332 35.92072266 44.28344727 36.67675781 C46.28759225 39.38923735 48.14760172 42.18226741 50 45 C50.04949353 40.08871933 50.08576382 35.17758434 50.10986328 30.26611328 C50.1199115 28.59584015 50.13355236 26.92558458 50.15087891 25.25537109 C50.17517926 22.85249496 50.18649487 20.44985173 50.1953125 18.046875 C50.20563507 17.30193787 50.21595764 16.55700073 50.22659302 15.78948975 C50.2273976 12.05889237 50.20519294 9.10590554 48 6 C46.06896092 4.88526866 46.06896092 4.88526866 43.875 4.25 C43.15054688 4.00765625 42.42609375 3.7653125 41.6796875 3.515625 C40.84824219 3.26039063 40.84824219 3.26039063 40 3 C40 2.01 40 1.02 40 0 C47.92 0 55.84 0 64 0 C64 0.99 64 1.98 64 3 C62.865625 3.433125 61.73125 3.86625 60.5625 4.3125 C59.386875 4.869375 58.21125 5.42625 57 6 C56.00175095 8.99474714 55.84675968 11.07345334 55.79467773 14.20581055 C55.77473251 15.26668381 55.75478729 16.32755707 55.73423767 17.420578 C55.71752518 18.56440445 55.70081268 19.7082309 55.68359375 20.88671875 C55.66281265 22.05886429 55.64203156 23.23100983 55.62062073 24.43867493 C55.55516182 28.18822286 55.49625704 31.93784163 55.4375 35.6875 C55.39431132 38.22722091 55.35069692 40.76693462 55.30664062 43.30664062 C55.19948414 49.53768522 55.0977108 55.76880051 55 62 C50.20184326 61.1925354 50.20184326 61.1925354 48.38525391 59.4597168 C47.92038574 58.79625244 47.45551758 58.13278809 46.9765625 57.44921875 C46.43773437 56.69745361 45.89890625 55.94568848 45.34375 55.17114258 C44.7765625 54.35154053 44.209375 53.53193848 43.625 52.6875 C42.38916568 50.95491199 41.15214543 49.2231694 39.9140625 47.4921875 C39.27500977 46.59081055 38.63595703 45.68943359 37.97753906 44.76074219 C34.72636952 40.22194896 31.3620951 35.76939674 28 31.3125 C26.79146569 29.70457812 25.58312411 28.09651136 24.375 26.48828125 C23.53388672 25.36993896 23.53388672 25.36993896 22.67578125 24.22900391 C20.11410571 20.82164701 17.55689286 17.41094658 15 14 C14.95052047 19.19611221 14.91424273 24.39208691 14.89013672 29.58837891 C14.88008616 31.35565582 14.86644358 33.12291613 14.84912109 34.89013672 C14.82483115 37.43200785 14.81350745 39.97365889 14.8046875 42.515625 C14.79436493 43.30430969 14.78404236 44.09299438 14.77340698 44.90557861 C14.74228357 50.27555332 14.74228357 50.27555332 17 55 C18.93103908 56.11473134 18.93103908 56.11473134 21.125 56.75 C21.84945312 56.99234375 22.57390625 57.2346875 23.3203125 57.484375 C23.87460937 57.65453125 24.42890625 57.8246875 25 58 C25 58.99 25 59.98 25 61 C17.08 61 9.16 61 1 61 C1 60.01 1 59.02 1 58 C2.134375 57.566875 3.26875 57.13375 4.4375 56.6875 C5.613125 56.130625 6.78875 55.57375 8 55 C8.91023719 52.26928843 9.12632335 50.67536765 9.12939453 47.86743164 C9.13254669 47.03969742 9.13569885 46.2119632 9.13894653 45.35914612 C9.1369223 44.46847946 9.13489807 43.57781281 9.1328125 42.66015625 C9.13376923 41.7416539 9.13472595 40.82315155 9.13571167 39.8768158 C9.13639217 37.93423392 9.13454695 35.99164977 9.13037109 34.04907227 C9.12502713 31.07758461 9.13031735 28.10624853 9.13671875 25.13476562 C9.13605783 23.2473955 9.13477637 21.36002547 9.1328125 19.47265625 C9.13483673 18.58401382 9.13686096 17.6953714 9.13894653 16.77980042 C9.13579437 15.94891403 9.13264221 15.11802765 9.12939453 14.26196289 C9.12859894 13.53376846 9.12780334 12.80557404 9.12698364 12.05531311 C8.99196868 9.87000782 8.76804509 8.05550518 8 6 C5.08333333 4.75 5.08333333 4.75 2 4 C1.34 3.67 0.68 3.34 0 3 C0 2.01 0 1.02 0 0 Z " fill="#013237" transform="translate(592,955)"/>
<path d="M0 0 C15.84 0 31.68 0 48 0 C48 4.95 48 9.9 48 15 C46.68 14.67 45.36 14.34 44 14 C42.98799072 12.26060906 41.97746123 10.51430325 41.125 8.69140625 C39.6770201 6.5144087 38.40022733 6.00382344 36 5 C33.88185683 4.64088781 33.88185683 4.64088781 31.671875 4.5859375 C30.9509668 4.55032715 30.23005859 4.5147168 29.48730469 4.47802734 C28.13233887 4.42702881 28.13233887 4.42702881 26.75 4.375 C23.8625 4.25125 20.975 4.1275 18 4 C18 11.92 18 19.84 18 28 C20.84625 27.87625 20.84625 27.87625 23.75 27.75 C25.35101562 27.68039062 25.35101562 27.68039062 26.984375 27.609375 C30.57533777 26.88374004 31.7497721 25.83362031 34 23 C35.25436187 20.36777038 35.25436187 20.36777038 36 18 C36.99 18 37.98 18 39 18 C39 25.92 39 33.84 39 42 C38.01 42 37.02 42 36 42 C35.73445312 41.43410156 35.46890625 40.86820313 35.1953125 40.28515625 C34.84210937 39.55167969 34.48890625 38.81820312 34.125 38.0625 C33.60292969 36.96615234 33.60292969 36.96615234 33.0703125 35.84765625 C32.1315023 33.83667541 32.1315023 33.83667541 30 33 C27.9625237 32.77141886 25.91959697 32.58975722 23.875 32.4375 C22.77929688 32.35371094 21.68359375 32.26992188 20.5546875 32.18359375 C19.29011719 32.09271484 19.29011719 32.09271484 18 32 C18.08060591 35.62592996 18.19346817 39.25014402 18.3125 42.875 C18.33505859 43.90753906 18.35761719 44.94007813 18.38085938 46.00390625 C18.4340332 47.48310547 18.4340332 47.48310547 18.48828125 48.9921875 C18.51446533 49.90339355 18.54064941 50.81459961 18.56762695 51.75341797 C18.71031006 52.49479004 18.85299316 53.23616211 19 54 C22.81601142 56.54400761 25.95414856 56.33116914 30.375 56.3125 C31.50808594 56.33666992 31.50808594 56.33666992 32.6640625 56.36132812 C37.24724263 56.3653344 40.34989851 56.05497625 44 53 C45.74936517 50.5410734 45.74936517 50.5410734 47.125 47.8125 C48.5703125 45.08203125 48.5703125 45.08203125 50 43 C50.99 43 51.98 43 53 43 C52.67 48.94 52.34 54.88 52 61 C34.84 61 17.68 61 0 61 C0 60.01 0 59.02 0 58 C1.134375 57.690625 2.26875 57.38125 3.4375 57.0625 C6.78775099 56.37075469 6.78775099 56.37075469 8 55 C8.09319449 53.4651703 8.117458 51.92607918 8.11352539 50.38842773 C8.11344986 49.40748642 8.11337433 48.4265451 8.11329651 47.4158783 C8.10813522 46.3492244 8.10297394 45.2825705 8.09765625 44.18359375 C8.0962413 43.0974025 8.09482635 42.01121124 8.09336853 40.8921051 C8.08775048 37.40720925 8.07519492 33.92237658 8.0625 30.4375 C8.05748733 28.08138113 8.05292402 25.72526126 8.04882812 23.36914062 C8.03777519 17.57940536 8.02101951 11.78970719 8 6 C5.36 5.01 2.72 4.02 0 3 C0 2.01 0 1.02 0 0 Z " fill="#013237" transform="translate(782,955)"/>
<path d="M0 0 C8.13908826 5.81535448 13.00658278 12.17788971 15 22 C15.89615239 32.70975566 14.64955438 41.99557434 7.625 50.4375 C1.23932628 57.08131798 -5.15276799 60.01666829 -14.375 60.3125 C-24.01104802 60.04957918 -29.82733534 57.14426388 -36.828125 50.48046875 C-43.18059591 43.22539855 -44.38462996 34.79314162 -44.26953125 25.44921875 C-43.51096893 15.74181978 -39.29983998 8.36091129 -32 2 C-22.62101197 -4.13372224 -10.03759014 -5.45144982 0 0 Z M-28.1875 7.0625 C-34.84021215 15.46133082 -34.78782303 25.71391619 -34 36 C-32.86338739 43.60813669 -29.73338113 48.8809097 -24 54 C-19.76330148 56.67580959 -14.87692289 56.53611564 -10 56 C-4.52736643 54.17578881 -1.07171765 50.77520708 2 46 C6.43590114 36.84576207 6.35030822 25.28866483 3.9375 15.5625 C1.83798495 9.60226534 -2.04091355 4.8688967 -7.375 1.5 C-15.71419946 -0.08841894 -22.09467513 0.73074082 -28.1875 7.0625 Z " fill="#013237" transform="translate(1572,957)"/>
<path d="M0 0 C8.13908826 5.81535448 13.00658278 12.17788971 15 22 C15.89615239 32.70975566 14.64955438 41.99557434 7.625 50.4375 C1.23932628 57.08131798 -5.15276799 60.01666829 -14.375 60.3125 C-24.01104802 60.04957918 -29.82733534 57.14426388 -36.828125 50.48046875 C-43.18059591 43.22539855 -44.38462996 34.79314162 -44.26953125 25.44921875 C-43.51096893 15.74181978 -39.29983998 8.36091129 -32 2 C-22.62101197 -4.13372224 -10.03759014 -5.45144982 0 0 Z M-28.1875 7.0625 C-34.84021215 15.46133082 -34.78782303 25.71391619 -34 36 C-32.86338739 43.60813669 -29.73338113 48.8809097 -24 54 C-19.76330148 56.67580959 -14.87692289 56.53611564 -10 56 C-4.52736643 54.17578881 -1.07171765 50.77520708 2 46 C6.43590114 36.84576207 6.35030822 25.28866483 3.9375 15.5625 C1.83798495 9.60226534 -2.04091355 4.8688967 -7.375 1.5 C-15.71419946 -0.08841894 -22.09467513 0.73074082 -28.1875 7.0625 Z " fill="#013237" transform="translate(959,957)"/>
<path d="M0 0 C0.66 -0.66 1.32 -1.32 2 -2 C2.99 -2 3.98 -2 5 -2 C5 4.93 5 11.86 5 19 C4.01 19 3.02 19 2 19 C1.62488281 18.18015625 1.24976563 17.3603125 0.86328125 16.515625 C0.35152344 15.43796875 -0.16023437 14.3603125 -0.6875 13.25 C-1.18636719 12.18265625 -1.68523438 11.1153125 -2.19921875 10.015625 C-4.71605922 5.80087264 -7.34806214 3.55064595 -12 2 C-18.39180452 1.23096632 -23.83499742 1.97400454 -29 6 C-36.21055224 14.43671214 -36.74888194 24.32546059 -36 35 C-34.88002396 41.94573379 -32.42108245 47.39719414 -27 52 C-21.63244601 55.19988795 -16.13501789 55.96718984 -10 55 C-8.02 54.01 -6.04 53.02 -4 52 C-4 47.05 -4 42.1 -4 37 C-6.97 36.01 -9.94 35.02 -13 34 C-13 33.01 -13 32.02 -13 31 C-4.42 31 4.16 31 13 31 C13 31.99 13 32.98 13 34 C10.69 34.99 8.38 35.98 6 37 C5.67 42.94 5.34 48.88 5 55 C-5.96602548 59.09574446 -16.6771342 62.62304961 -28.25 58.4375 C-37.30307063 54.26698431 -42.4007599 48.2220873 -46 39 C-48.87044938 29.79984174 -47.10145403 20.4843804 -43 12 C-38.90196924 4.52462664 -32.72727322 -0.06480749 -24.5859375 -2.49609375 C-15.90587898 -4.18752509 -8.12366791 -3.30454288 0 0 Z " fill="#013237" transform="translate(766,957)"/>
<path d="M0 0 C8.25 0 16.5 0 25 0 C25 0.99 25 1.98 25 3 C22.69 3.33 20.38 3.66 18 4 C17.92567346 10.01397009 17.87131412 16.02767096 17.83520508 22.04199219 C17.82014712 24.08663594 17.79969643 26.13124755 17.77368164 28.17578125 C17.73716689 31.11987252 17.72024349 34.06353557 17.70703125 37.0078125 C17.68380547 38.3722197 17.68380547 38.3722197 17.66011047 39.76419067 C17.65874944 44.93242216 18.07267602 48.545092 21 53 C26.09829604 56.82372203 31.88304009 56.79014431 38 56 C41.94193159 54.73829676 44.41620101 52.92370546 46.66259766 49.36938477 C48.23661987 45.4038717 48.43285843 41.9138264 48.3984375 37.71484375 C48.40274277 36.5467794 48.40274277 36.5467794 48.40713501 35.3551178 C48.4091672 33.71712512 48.40369673 32.07910771 48.39111328 30.44116211 C48.37502472 27.94134103 48.39100091 25.44313114 48.41015625 22.94335938 C48.40817409 21.34635062 48.40433098 19.74934286 48.3984375 18.15234375 C48.40451019 17.40951645 48.41058289 16.66668915 48.4168396 15.90135193 C48.35680675 11.45115323 47.85938647 8.47456796 45 5 C41.42003741 3.63099646 41.42003741 3.63099646 38 3 C38 2.01 38 1.02 38 0 C46.25 0 54.5 0 63 0 C63 0.99 63 1.98 63 3 C62.43410156 3.18175781 61.86820313 3.36351562 61.28515625 3.55078125 C60.18494141 3.92783203 60.18494141 3.92783203 59.0625 4.3125 C58.33160156 4.55613281 57.60070313 4.79976562 56.84765625 5.05078125 C54.64067976 5.91240441 54.64067976 5.91240441 54 9 C53.89342573 11.78138666 53.83887145 14.54227812 53.82421875 17.32421875 C53.80100898 19.00977795 53.77689118 20.69532485 53.75195312 22.38085938 C53.71694742 25.02929792 53.68755198 27.67728677 53.67407227 30.32592773 C53.65848977 32.88840976 53.61820768 35.44958656 53.57421875 38.01171875 C53.57612717 38.79222092 53.57803558 39.57272308 53.58000183 40.37687683 C53.43235489 47.09627773 51.47870259 52.45244456 46.75 57.3125 C38.91841747 62.11824382 31.62710313 63.07466537 22.54296875 61.6015625 C16.2621894 59.95379415 12.59777343 56.31099888 9 51 C8.09683675 48.29051025 7.853425 46.59864666 7.79467773 43.80395508 C7.77473251 42.96331009 7.75478729 42.1226651 7.73423767 41.25654602 C7.71752518 40.35333115 7.70081268 39.45011627 7.68359375 38.51953125 C7.66281265 37.59154221 7.64203156 36.66355316 7.62062073 35.70744324 C7.55522677 32.7425376 7.49628738 29.77754328 7.4375 26.8125 C7.39430513 24.8027252 7.35069053 22.79295937 7.30664062 20.78320312 C7.19955573 15.85555968 7.09825955 10.92782701 7 6 C4.69 5.01 2.38 4.02 0 3 C0 2.01 0 1.02 0 0 Z " fill="#013237" transform="translate(980,955)"/>
<path d="M0 0 C1.32 0 2.64 0 4 0 C4.20187424 0.51205994 4.40374847 1.02411987 4.61174011 1.55169678 C6.73594952 6.93914605 8.86178892 12.32595016 10.98852539 17.71240234 C11.7792981 19.71582203 12.56967163 21.71939933 13.35961914 23.72314453 C15.57823686 29.3503786 17.80704764 34.97337452 20.04696655 40.59216309 C20.88903227 42.71964028 21.71435501 44.85249225 22.5324707 46.98925781 C22.95488037 48.06530273 23.37729004 49.14134766 23.8125 50.25 C24.1528125 51.136875 24.493125 52.02375 24.84375 52.9375 C26.20744448 55.37003611 27.28612044 56.12716464 29.8125 57.25 C30.864375 57.4975 31.91625 57.745 33 58 C33 58.99 33 59.98 33 61 C24.75 61 16.5 61 8 61 C8 60.01 8 59.02 8 58 C10.31 57.67 12.62 57.34 15 57 C14.72285156 56.10796875 14.44570313 55.2159375 14.16015625 54.296875 C13.61681641 52.54117188 13.61681641 52.54117188 13.0625 50.75 C12.52302734 49.00976562 12.52302734 49.00976562 11.97265625 47.234375 C11.25283875 44.84076501 10.60621808 42.4248723 10 40 C2.74 40.33 -4.52 40.66 -12 41 C-14.56028681 48.50224223 -14.56028681 48.50224223 -16 56 C-13.03 56.66 -10.06 57.32 -7 58 C-7 58.99 -7 59.98 -7 61 C-14.59 61 -22.18 61 -30 61 C-30 60.01 -30 59.02 -30 58 C-28.80117188 57.61199219 -27.60234375 57.22398437 -26.3671875 56.82421875 C-19.99257932 53.60886975 -18.47527289 47.13200411 -16.125 40.8125 C-15.62080403 39.51890608 -15.11393335 38.22635172 -14.60449219 36.93481445 C-13.56307765 34.28367799 -12.53677394 31.62744033 -11.52246094 28.96582031 C-9.61045288 23.96092107 -7.60225761 18.99638153 -5.59716797 14.02807617 C-3.71420472 9.35888696 -1.85582036 4.68003019 0 0 Z M-2 13 C-3.33871641 16.45627381 -4.67005392 19.91534297 -6 23.375 C-6.57234375 24.85226562 -6.57234375 24.85226562 -7.15625 26.359375 C-7.5171875 27.30039062 -7.878125 28.24140625 -8.25 29.2109375 C-8.75273438 30.51490479 -8.75273438 30.51490479 -9.265625 31.84521484 C-10.10753032 33.93609786 -10.10753032 33.93609786 -10 36 C-4.06 36 1.88 36 8 36 C6.26718538 30.6191546 4.41163887 25.29746732 2.4375 20 C1.81681641 18.329375 1.81681641 18.329375 1.18359375 16.625 C0.27606439 13.87488577 0.27606439 13.87488577 -2 13 Z " fill="#013237" transform="translate(685,955)"/>
<path d="M0 0 C17.49 0 34.98 0 53 0 C53 5.61 53 11.22 53 17 C52.01 17 51.02 17 50 17 C48.5 14.8828125 48.5 14.8828125 47 12.125 C45.13594975 8.71728314 44.28790485 7.19193657 41 5 C37.7 4.67 34.4 4.34 31 4 C31.33 20.83 31.66 37.66 32 55 C34.64 55.99 37.28 56.98 40 58 C40 58.99 40 59.98 40 61 C31.09 61 22.18 61 13 61 C13 60.01 13 59.02 13 58 C14.134375 57.690625 15.26875 57.38125 16.4375 57.0625 C19.78775099 56.37075469 19.78775099 56.37075469 21 55 C21.12272849 53.40486107 21.17781043 51.80445068 21.20532227 50.20483398 C21.22526749 49.18385117 21.24521271 48.16286835 21.26576233 47.11094666 C21.28247482 46.0005452 21.29918732 44.89014374 21.31640625 43.74609375 C21.33718735 42.61551041 21.35796844 41.48492706 21.37937927 40.32008362 C21.44499797 36.69262015 21.50381677 33.06508167 21.5625 29.4375 C21.60567351 26.98501814 21.6492874 24.532544 21.69335938 22.08007812 C21.80069184 16.05346573 21.9024349 10.02677799 22 4 C20.39240072 4.11098567 18.78577227 4.2360961 17.1796875 4.3671875 C16.28491699 4.43534668 15.39014648 4.50350586 14.46826172 4.57373047 C10.67257806 5.22924616 9.24671989 6.96032015 7 10 C5.55928112 12.29659148 4.27063271 14.59991599 3 17 C2.01 17 1.02 17 0 17 C0 11.39 0 5.78 0 0 Z " fill="#013237" transform="translate(1409,955)"/>
<path d="M0 0 C8.58 0 17.16 0 26 0 C26 0.99 26 1.98 26 3 C23.36 3.33 20.72 3.66 18 4 C19.41188933 7.02308827 20.83038351 10.04303358 22.25 13.0625 C22.64574219 13.91005859 23.04148437 14.75761719 23.44921875 15.63085938 C25.76971419 20.55715708 28.22715608 25.31287621 31 30 C32.41895708 27.81395715 33.83519792 25.62622986 35.25 23.4375 C35.64574219 22.82841797 36.04148437 22.21933594 36.44921875 21.59179688 C37.64690797 19.73636029 38.82792366 17.87171425 40 16 C40.39251953 15.37754395 40.78503906 14.75508789 41.18945312 14.11376953 C43.25245804 10.70726449 44 9.08600976 44 5 C41.69 4.34 39.38 3.68 37 3 C37 2.01 37 1.02 37 0 C43.93 0 50.86 0 58 0 C58 0.99 58 1.98 58 3 C56.2675 3.928125 56.2675 3.928125 54.5 4.875 C48.75495161 8.24907604 46.15412182 13.56216523 42.98339844 19.24951172 C41.3971673 22.07306616 39.71921569 24.84239385 38.0625 27.625 C35.46606965 32.03715727 33.86773192 35.29205626 33.90234375 40.44921875 C33.90556641 41.29677734 33.90878906 42.14433594 33.91210938 43.01757812 C33.92048828 43.89865234 33.92886719 44.77972656 33.9375 45.6875 C33.94201172 46.58017578 33.94652344 47.47285156 33.95117188 48.39257812 C33.96294996 50.59508073 33.98088519 52.79754885 34 55 C36.64 55.99 39.28 56.98 42 58 C42 58.99 42 59.98 42 61 C33.09 61 24.18 61 15 61 C15 60.01 15 59.02 15 58 C16.134375 57.690625 17.26875 57.38125 18.4375 57.0625 C21.78775099 56.37075469 21.78775099 56.37075469 23 55 C25.25292699 42.37764086 22.27994441 32.76601415 16.375 21.625 C16.06585663 21.03414612 15.75671326 20.44329224 15.4382019 19.83453369 C9.89090906 9.14899587 9.89090906 9.14899587 0 3 C0 2.01 0 1.02 0 0 Z " fill="#013237" transform="translate(1588,955)"/>
<path d="M0 0 C8.58 0 17.16 0 26 0 C26 0.99 26 1.98 26 3 C23.36 3.33 20.72 3.66 18 4 C19.41188933 7.02308827 20.83038351 10.04303358 22.25 13.0625 C22.64574219 13.91005859 23.04148437 14.75761719 23.44921875 15.63085938 C25.76971419 20.55715708 28.22715608 25.31287621 31 30 C32.41895708 27.81395715 33.83519792 25.62622986 35.25 23.4375 C35.64574219 22.82841797 36.04148437 22.21933594 36.44921875 21.59179688 C37.64690797 19.73636029 38.82792366 17.87171425 40 16 C40.39251953 15.37754395 40.78503906 14.75508789 41.18945312 14.11376953 C43.25245804 10.70726449 44 9.08600976 44 5 C41.69 4.34 39.38 3.68 37 3 C37 2.01 37 1.02 37 0 C43.93 0 50.86 0 58 0 C58 0.99 58 1.98 58 3 C56.2675 3.928125 56.2675 3.928125 54.5 4.875 C48.75495161 8.24907604 46.15412182 13.56216523 42.98339844 19.24951172 C41.3971673 22.07306616 39.71921569 24.84239385 38.0625 27.625 C35.46606965 32.03715727 33.86773192 35.29205626 33.90234375 40.44921875 C33.90556641 41.29677734 33.90878906 42.14433594 33.91210938 43.01757812 C33.92048828 43.89865234 33.92886719 44.77972656 33.9375 45.6875 C33.94201172 46.58017578 33.94652344 47.47285156 33.95117188 48.39257812 C33.96294996 50.59508073 33.98088519 52.79754885 34 55 C36.64 55.99 39.28 56.98 42 58 C42 58.99 42 59.98 42 61 C33.09 61 24.18 61 15 61 C15 60.01 15 59.02 15 58 C16.134375 57.690625 17.26875 57.38125 18.4375 57.0625 C21.78775099 56.37075469 21.78775099 56.37075469 23 55 C25.25292699 42.37764086 22.27994441 32.76601415 16.375 21.625 C16.06585663 21.03414612 15.75671326 20.44329224 15.4382019 19.83453369 C9.89090906 9.14899587 9.89090906 9.14899587 0 3 C0 2.01 0 1.02 0 0 Z " fill="#013237" transform="translate(856,955)"/>
<path d="M0 0 C8.91 0 17.82 0 27 0 C27 0.99 27 1.98 27 3 C24.36 3.99 21.72 4.98 19 6 C19 22.17 19 38.34 19 55 C21.64 55.99 24.28 56.98 27 58 C27 58.99 27 59.98 27 61 C18.09 61 9.18 61 0 61 C0 60.01 0 59.02 0 58 C2.64 57.67 5.28 57.34 8 57 C8 40.17 8 23.34 8 6 C5.36 5.01 2.72 4.02 0 3 C0 2.01 0 1.02 0 0 Z " fill="#013237" transform="translate(1128,955)"/>
</svg>
